<svg width="32" height="24" viewBox="0 0 32 24" fill="none" xmlns="http://www.w3.org/2000/svg">
  <rect width="32" height="24" rx="4" fill="#5865F2"/>
  <path d="M20.8 18.0003C20.8 18.0003 20.32 17.4 20 16.96C21.84 16.4 22.56 15.2 22.56 15.2C21.84 15.68 21.12 16 20.48 16.24C19.6 16.6 18.72 16.8 17.84 16.88C15.92 17.2 14.08 17.04 12.48 16.48C12 16.32 11.6 16.16 11.2 15.92C11.04 15.84 10.88 15.76 10.72 15.68H10.64C10.64 15.68 11.36 16.88 13.12 17.44C12.8 17.84 12.32 18.48 12.32 18.48C9.2 18.4 8 16.16 8 16.16C8 11.36 10.16 8.16 10.16 8.16C11.92 6.88 13.6 6.88 13.6 6.88L13.76 7.04C11.52 7.68 10.48 8.64 10.48 8.64C10.48 8.64 10.8 8.48 11.44 8.16C13.2 7.36 15.04 7.2 16 7.12C16.16 7.12 16.32 7.12 16.48 7.12C16.56 7.12 16.64 7.12 16.72 7.12C17.12 7.12 18.72 7.2 20.48 7.84C21.44 8.16 22.08 8.56 22.08 8.56C22.08 8.56 21.12 7.6 19.04 6.96L19.2 6.8C19.2 6.8 20.88 6.8 22.64 8.08C22.64 8.08 24.8 11.28 24.8 16.08C24.8 16.08 23.6 18.32 20.8 18.0003ZM13.92 11.2C12.96 11.2 12.24 12 12.24 12.96C12.24 13.92 12.96 14.72 13.92 14.72C14.8 14.72 15.6 13.92 15.6 12.96C15.6 12 14.88 11.2 13.92 11.2ZM18.4 11.2C17.44 11.2 16.72 12 16.72 12.96C16.72 13.92 17.44 14.72 18.4 14.72C19.28 14.72 20.08 13.92 20.08 12.96C20.08 12 19.28 11.2 18.4 11.2Z" fill="white"/>
</svg>
